# xmcd
#
# Track frame offsets:
#	150
#	17531
#	32541
#	50086
#	66610
#	84496
#	100833
#	120014
#	136418
#	152615
#	165683
#	177649
#	194858
#
# Disc length: 2735 seconds
# Revision: 0
# Processed by: cddbd v1.5.2PL0 Copyright (c) Steve Scherf et al.
# Submitted via: dBpowerAMP V12.0
#
DISCID=af0aad0d
DTITLE=Various Artist - 
DYEAR=2008
DGENRE=Country
TTITLE0=Kellie Pickler - Best Days of Your Life
TTITLE1=George Strait - River Of Love
TTITLE2=Keith Urban - Sweet Thing
TTITLE3=The Song Trust - Bring Him home Santa
TTITLE4=Crystal Sands - Wrapped Around His Finger
TTITLE5=Marti Carroll - Back Track
TTITLE6=Cher Lynn Bragg - Blue Collar Wife
TTITLE7=Sherwin Linton - Global Warming Christmas (There Is No Snow In Kalamazoo)
TTITLE8=Joe Louis Puerta - I'm Comin' Home For Christmas
TTITLE9=4 Sisters and A Cousin - White Christmas
TTITLE10=4 Sisters and A Cousin - Sleigh Ride
TTITLE11=4 Sisters and A Cousin - Have Yourself A Merry Little Christmas
TTITLE12=4 Sisters and A Cousin - Santa Claus Is Coming To Town
EXTD=
EXTT0=
EXTT1=
EXTT2=
EXTT3=
EXTT4=
EXTT5=
EXTT6=
EXTT7=
EXTT8=
EXTT9=
EXTT10=
EXTT11=
EXTT12=
PLAYORDER=
